# xmcd
#
# Track frame offsets:
#	150
#	15065
#	29660
#	49935
#	64837
#	80400
#	98085
#	112387
#	127507
#	145622
#
# Disc length: 2097 seconds
#
# Revision: 2
# Processed by: cddbd v1.5.2PL0 Copyright (c) Steve Scherf et al.
# Submitted via: audiograbber 1.83.01
#
DISCID=7a082f0a
DTITLE=Rosanne Cash - Super Hits
DYEAR=1998
DGENRE=Country
TTITLE0=Seven Year Ache (1981)
TTITLE1=My Baby Thinks he's a Train (1981)
TTITLE2=Blue Moon with Heartache (1981)
TTITLE3=I Don't Know Why You Don't Want Me (1985)
TTITLE4=Never Be You (1985)
TTITLE5=The Way We Make a Broken Heart (1987)
TTITLE6=Tennessee Flat Top Box (1987)
TTITLE7=If You Change Your Mind (1987)
TTITLE8=Runaway Train (1987)
TTITLE9=I Don't Want to Spoil the Party (1989)
EXTD=Track dates supplied
EXTT0=
EXTT1=
EXTT2=
EXTT3=
EXTT4=
EXTT5=
EXTT6=
EXTT7=
EXTT8=
EXTT9=
PLAYORDER=
